# xmcd CD database file
#
# Track frame offsets:
#	150
#	12745
#	25915
#	38182
#	49725
#	62415
#	75860
#	88102
#	100367
#	111992
#	124215
#	137197
#	149515
#	162285
#	175820
#	189792
#	204322
#	216172
#	229892
#	243470
#	256912
#	269892
#	282330
#	295452
#	308837
#	321887
#	334927
#
# Disc length: 4647 seconds
#
# Revision: 0
# Processed by: cddbd v1.4PL0 Copyright (c) Steve Scherf et al.
# Submitted via: CDex 1.50beta10
#
DISCID=9b12251b
DTITLE=Sons of the Pioneers - Wagons West
DYEAR=1993
DGENRE=Country
TTITLE0=Forgive And Forget (1945)
TTITLE1=Cool Water (1945)
TTITLE2=The Timber Trail (1945)
TTITLE3=Stars And Stripes On Iwo Jima (1945)
TTITLE4=You´re Getting Tired Of Me (1946)
TTITLE5=Gold Star Mother With Silvery Hair (1946)
TTITLE6=You´ll Be Sorry When I´m Gone (1947)
TTITLE7=I Wear Your Memory In My Heart (1946)
TTITLE8=Cowboy Camp Meetin´ (1946)
TTITLE9=Tumbling Tumbleweeds (1946)
TTITLE10=Out California Way (1946)
TTITLE11=Grievin´ My Heart Out For You (1946)
TTITLE12=No One To Cry To (1946)
TTITLE13=The Everlasting Hills Of Oklahoma (1946)
TTITLE14=Chant Of The Wanderer (1947)
TTITLE15=Blue Prairie (1947)
TTITLE16=Trees (1947)
TTITLE17=The Letter Marked Unclaimed (1947)
TTITLE18=Baby Doll (1947)
TTITLE19=A Penny For Your Thoughts (1946)
TTITLE20=Have I Told You Lately That I Love You (1946)
TTITLE21=Let´s Pretend (1952)
TTITLE22=Cigareetes, Whusky And Wild Women (1947)
TTITLE23=Teardrops In My Heart (1947)
TTITLE24=My Best To You (1947)
TTITLE25=Will There Be Sagebrush In The Heaven (1947)
TTITLE26=You Dont Know What Lonesome Is (1947)
EXTD=YEAR: 1993
EXTT0=
EXTT1=
EXTT2=
EXTT3=
EXTT4=
EXTT5=
EXTT6=
EXTT7=
EXTT8=
EXTT9=
EXTT10=
EXTT11=
EXTT12=
EXTT13=
EXTT14=
EXTT15=
EXTT16=
EXTT17=
EXTT18=
EXTT19=
EXTT20=
EXTT21=
EXTT22=
EXTT23=
EXTT24=
EXTT25=
EXTT26=
PLAYORDER=
